<?xml version="1.0" encoding="iso-8859-1"?>
<!-- Generator: Adobe Illustrator 19.0.0, SVG Export Plug-In . SVG Version: 6.00 Build 0)  -->
<svg version="1.1" id="Layer_1" xmlns="http://www.w3.org/2000/svg" xmlns:xlink="http://www.w3.org/1999/xlink" x="0px" y="0px"
	 viewBox="0 0 512 512" style="enable-background:new 0 0 512 512;" xml:space="preserve">
<rect x="207.935" y="16.196" style="fill:#4BAF78;" width="95.033" height="23.947"/>
<g>
	<rect x="215.521" y="40.145" style="fill:#FCBB3B;" width="79.82" height="95.786"/>
	<polyline style="fill:#FCBB3B;" points="144.196,232.49 144.196,136.359 366.759,136.359 366.759,232.49 	"/>
</g>
<rect x="143.684" y="135.931" style="fill:#75C0C7;" width="223.504" height="39.915"/>
<rect x="175.616" y="159.88" style="fill:#FFFFFF;" width="159.65" height="31.929"/>
<path style="fill:#FCBB3B;" d="M383.478,279.613v15.965c0,29.162-9.96,56.143-26.411,77.642l2.138,2.421h119.735
	C478.94,322.351,436.767,279.613,383.478,279.613z"/>
<rect y="375.4" style="fill:#75C0C7;" width="510.871" height="127.718"/>
<path style="fill:#E0DCCD;" d="M191.492,406.229c-38.195-22.078-64.015-63.364-64.015-110.652v-55.876l128-63.859l128,63.859v55.876
	c0,47.273-25.906,88.548-64.08,110.631"/>
<path style="fill:#A8A59A;" d="M255.315,175.843l-127.837,63.859v55.876c0,47.288,25.819,88.574,64.015,110.652l96.396-0.016
	c-38.181-22.083-63.235-63.358-63.235-110.636v-55.876l31.295-15.964"/>
<polygon style="fill:#4BAF78;" points="255.478,175.843 127.478,239.702 127.478,287.596 255.478,223.737 383.478,287.596 
	383.478,239.702 "/>
<polygon style="fill:#1E834E;" points="127.718,287.596 223.506,239.702 223.506,191.808 127.718,239.702 "/>
<polygon points="374.073,80.98 135.837,80.98 135.837,96.653 151.51,96.653 151.51,119.641 167.184,119.641 167.184,96.653 
	183.902,96.653 183.902,119.641 199.576,119.641 199.576,96.653 215.249,96.653 215.249,119.641 230.922,119.641 230.922,96.653 
	246.596,96.653 246.596,119.641 262.269,119.641 262.269,96.653 280.033,96.653 280.033,119.641 295.706,119.641 295.706,96.653 
	311.38,96.653 311.38,119.641 327.053,119.641 327.053,96.653 342.727,96.653 342.727,119.641 358.4,119.641 358.4,96.653 
	374.073,96.653 "/>
<polygon points="303.02,71.576 287.347,71.576 287.347,48.588 223.608,48.588 223.608,71.576 207.935,71.576 207.935,32.914 
	303.02,32.914 "/>
<rect x="207.935" y="8.882" width="95.086" height="15.673"/>
<g>
	<rect x="246.596" y="55.902" style="fill:#FFFFFF;" width="15.673" height="15.673"/>
	<rect x="24.033" y="415.347" style="fill:#FFFFFF;" width="24.033" height="15.673"/>
	<rect x="48.065" y="432.065" style="fill:#FFFFFF;" width="55.38" height="15.673"/>
	<rect x="111.804" y="456.098" style="fill:#FFFFFF;" width="144.196" height="15.673"/>
	<rect x="256" y="472.816" style="fill:#FFFFFF;" width="48.065" height="15.673"/>
	<rect x="350.041" y="432.065" style="fill:#FFFFFF;" width="104.49" height="15.673"/>
	<rect x="454.531" y="415.347" style="fill:#FFFFFF;" width="24.033" height="15.673"/>
	<rect x="478.563" y="472.816" style="fill:#FFFFFF;" width="16.718" height="15.673"/>
	<rect y="487.445" style="fill:#FFFFFF;" width="16.718" height="15.673"/>
	<rect x="335.412" y="448.784" style="fill:#FFFFFF;" width="14.629" height="15.673"/>
</g>
<path d="M486.515,368.327c-3.628-51.935-45.567-93.212-96.768-96.35v-37.115l-14.629-7.328V128H134.792v99.009l-15.673,7.851v60.716
	c0,26.107,7.703,51.286,21.454,72.749H0v15.673h152.265c9.843,11.394,21.628,21.259,35.044,29.015l7.843-13.569
	c-27.662-15.989-47.527-42.072-55.918-71.869h12.277v-15.673h-15.571c-0.753-5.374-1.147-10.825-1.147-16.324v-2.759l120.643-60.321
	l118.639,59.319v3.761c0,5.484-0.373,10.938-1.099,16.324h-13.529v15.673h10.356c-2.746,10.086-6.786,19.783-12.057,28.813
	c-10.411,17.833-25.345,32.716-43.186,43.036l7.849,13.567c13.187-7.629,24.956-17.469,34.826-28.992H512v-15.673L486.515,368.327
	L486.515,368.327z M150.465,184.424h9.404v-15.673h-9.404v-25.078h208.98v25.078h-9.404v15.673h9.404v35.257l-37.009-18.539h19.246
	v-49.11H167.184v49.11h19.246l-35.964,18.015V184.424z M291.147,185.469l-35.461-17.763h70.322v17.763H291.147z M253.178,167.706
	l-35.461,17.763h-34.86v-17.763H253.178z M255.435,214.974l-120.643,60.322v-30.756l86.634-43.398h3.228v-1.616l21.943-10.992
	v10.519h15.673v-10.519l25.078,12.563v0.047h0.093l86.634,43.397v29.753L255.435,214.974z M368.821,368.327
	c0.841-1.33,1.663-2.674,2.459-4.035c12.082-20.695,18.468-44.456,18.468-68.714V287.7c42.811,3.056,77.504,37.118,81.034,80.626
	H368.821z"/>
<rect x="144.196" y="399.673" style="fill:#FFFFFF;" width="222.563" height="15.673"/>
<g>
</g>
<g>
</g>
<g>
</g>
<g>
</g>
<g>
</g>
<g>
</g>
<g>
</g>
<g>
</g>
<g>
</g>
<g>
</g>
<g>
</g>
<g>
</g>
<g>
</g>
<g>
</g>
<g>
</g>
</svg>
